<mxfile host="app.diagrams.net" modified="2023-12-21T08:12:46.570Z" agent="Mozilla/5.0 (Windows NT 10.0; Win64; x64) AppleWebKit/537.36 (KHTML, like Gecko) Chrome/120.0.0.0 Safari/537.36" etag="ZzxUiv2C2BKMd4q1xmbd" version="22.1.11" type="device">
  <diagram name="第 1 页" id="6cU7MxjFcF02YMZ1OOlB">
    <mxGraphModel dx="1383" dy="607" grid="0" gridSize="10" guides="1" tooltips="1" connect="1" arrows="1" fold="1" page="1" pageScale="1" pageWidth="827" pageHeight="1169" math="0" shadow="0">
      <root>
        <mxCell id="0" />
        <mxCell id="1" parent="0" />
        <mxCell id="wZNhNJfkOugPo1ArBoC4-1" value="4.商品管理時序建模" style="text;html=1;strokeColor=none;fillColor=none;align=center;verticalAlign=middle;whiteSpace=wrap;rounded=0;fontSize=16;" parent="1" vertex="1">
          <mxGeometry x="27" y="19" width="177" height="30" as="geometry" />
        </mxCell>
        <mxCell id="wZNhNJfkOugPo1ArBoC4-3" value="管理員" style="rounded=0;whiteSpace=wrap;html=1;fontSize=16;" parent="1" vertex="1">
          <mxGeometry x="56.5" y="140" width="114.5" height="35" as="geometry" />
        </mxCell>
        <mxCell id="wZNhNJfkOugPo1ArBoC4-4" value="商品信息界面" style="rounded=0;whiteSpace=wrap;html=1;fontSize=16;" parent="1" vertex="1">
          <mxGeometry x="210" y="140" width="148" height="35" as="geometry" />
        </mxCell>
        <mxCell id="wZNhNJfkOugPo1ArBoC4-5" value="商品管理" style="rounded=0;whiteSpace=wrap;html=1;fontSize=16;" parent="1" vertex="1">
          <mxGeometry x="421" y="140" width="114.5" height="35" as="geometry" />
        </mxCell>
        <mxCell id="wZNhNJfkOugPo1ArBoC4-6" value="商品操作" style="rounded=0;whiteSpace=wrap;html=1;fontSize=16;" parent="1" vertex="1">
          <mxGeometry x="605" y="140" width="114.5" height="35" as="geometry" />
        </mxCell>
        <mxCell id="wZNhNJfkOugPo1ArBoC4-10" value="" style="shape=actor;whiteSpace=wrap;html=1;fontSize=16;" parent="1" vertex="1">
          <mxGeometry x="96.5" y="69" width="40" height="60" as="geometry" />
        </mxCell>
        <mxCell id="wZNhNJfkOugPo1ArBoC4-12" value="" style="endArrow=none;dashed=1;html=1;rounded=0;fontSize=12;startSize=8;endSize=8;curved=1;entryX=0.5;entryY=1;entryDx=0;entryDy=0;exitX=0;exitY=0.5;exitDx=0;exitDy=0;" parent="1" source="wZNhNJfkOugPo1ArBoC4-13" target="wZNhNJfkOugPo1ArBoC4-3" edge="1">
          <mxGeometry width="50" height="50" relative="1" as="geometry">
            <mxPoint x="114" y="390" as="sourcePoint" />
            <mxPoint x="473" y="310" as="targetPoint" />
          </mxGeometry>
        </mxCell>
        <mxCell id="wZNhNJfkOugPo1ArBoC4-13" value="" style="rounded=0;whiteSpace=wrap;html=1;fontSize=16;rotation=90;" parent="1" vertex="1">
          <mxGeometry x="85.5" y="518" width="62" height="27" as="geometry" />
        </mxCell>
        <mxCell id="wZNhNJfkOugPo1ArBoC4-15" value="" style="endArrow=none;dashed=1;html=1;rounded=0;fontSize=12;startSize=8;endSize=8;curved=1;exitX=1;exitY=0.5;exitDx=0;exitDy=0;" parent="1" source="wZNhNJfkOugPo1ArBoC4-13" edge="1">
          <mxGeometry width="50" height="50" relative="1" as="geometry">
            <mxPoint x="423" y="360" as="sourcePoint" />
            <mxPoint x="117" y="618" as="targetPoint" />
          </mxGeometry>
        </mxCell>
        <mxCell id="wZNhNJfkOugPo1ArBoC4-17" value="" style="rounded=0;whiteSpace=wrap;html=1;fontSize=16;rotation=90;" parent="1" vertex="1">
          <mxGeometry x="253" y="231" width="62" height="27" as="geometry" />
        </mxCell>
        <mxCell id="wZNhNJfkOugPo1ArBoC4-18" value="" style="rounded=0;whiteSpace=wrap;html=1;fontSize=16;rotation=90;" parent="1" vertex="1">
          <mxGeometry x="253" y="456" width="62" height="27" as="geometry" />
        </mxCell>
        <mxCell id="wZNhNJfkOugPo1ArBoC4-19" value="" style="rounded=0;whiteSpace=wrap;html=1;fontSize=16;rotation=90;" parent="1" vertex="1">
          <mxGeometry x="453.38" y="287" width="49.75" height="27" as="geometry" />
        </mxCell>
        <mxCell id="wZNhNJfkOugPo1ArBoC4-20" value="" style="rounded=0;whiteSpace=wrap;html=1;fontSize=16;rotation=90;" parent="1" vertex="1">
          <mxGeometry x="447.25" y="393" width="62" height="27" as="geometry" />
        </mxCell>
        <mxCell id="wZNhNJfkOugPo1ArBoC4-22" style="edgeStyle=none;curved=1;rounded=0;orthogonalLoop=1;jettySize=auto;html=1;exitX=0.5;exitY=0;exitDx=0;exitDy=0;fontSize=12;startSize=8;endSize=8;" parent="1" source="wZNhNJfkOugPo1ArBoC4-19" target="wZNhNJfkOugPo1ArBoC4-19" edge="1">
          <mxGeometry relative="1" as="geometry" />
        </mxCell>
        <mxCell id="wZNhNJfkOugPo1ArBoC4-23" value="" style="rounded=0;whiteSpace=wrap;html=1;fontSize=16;rotation=90;" parent="1" vertex="1">
          <mxGeometry x="636.63" y="337" width="51.25" height="27" as="geometry" />
        </mxCell>
        <mxCell id="wZNhNJfkOugPo1ArBoC4-24" value="" style="endArrow=none;dashed=1;html=1;rounded=0;fontSize=12;startSize=8;endSize=8;curved=1;entryX=0.5;entryY=1;entryDx=0;entryDy=0;exitX=0;exitY=0.5;exitDx=0;exitDy=0;" parent="1" source="wZNhNJfkOugPo1ArBoC4-23" target="wZNhNJfkOugPo1ArBoC4-6" edge="1">
          <mxGeometry width="50" height="50" relative="1" as="geometry">
            <mxPoint x="423" y="360" as="sourcePoint" />
            <mxPoint x="473" y="310" as="targetPoint" />
          </mxGeometry>
        </mxCell>
        <mxCell id="wZNhNJfkOugPo1ArBoC4-25" value="" style="endArrow=none;dashed=1;html=1;rounded=0;fontSize=12;startSize=8;endSize=8;curved=1;exitX=1;exitY=0.5;exitDx=0;exitDy=0;" parent="1" source="wZNhNJfkOugPo1ArBoC4-23" edge="1">
          <mxGeometry width="50" height="50" relative="1" as="geometry">
            <mxPoint x="423" y="360" as="sourcePoint" />
            <mxPoint x="662" y="617" as="targetPoint" />
          </mxGeometry>
        </mxCell>
        <mxCell id="wZNhNJfkOugPo1ArBoC4-26" value="" style="endArrow=none;dashed=1;html=1;rounded=0;fontSize=12;startSize=8;endSize=8;curved=1;exitX=0.5;exitY=1;exitDx=0;exitDy=0;entryX=0;entryY=0.5;entryDx=0;entryDy=0;" parent="1" source="wZNhNJfkOugPo1ArBoC4-4" target="wZNhNJfkOugPo1ArBoC4-17" edge="1">
          <mxGeometry width="50" height="50" relative="1" as="geometry">
            <mxPoint x="423" y="360" as="sourcePoint" />
            <mxPoint x="473" y="310" as="targetPoint" />
          </mxGeometry>
        </mxCell>
        <mxCell id="wZNhNJfkOugPo1ArBoC4-27" value="" style="endArrow=none;dashed=1;html=1;rounded=0;fontSize=12;startSize=8;endSize=8;curved=1;exitX=1;exitY=0.5;exitDx=0;exitDy=0;entryX=0;entryY=0.5;entryDx=0;entryDy=0;" parent="1" source="wZNhNJfkOugPo1ArBoC4-17" target="wZNhNJfkOugPo1ArBoC4-18" edge="1">
          <mxGeometry width="50" height="50" relative="1" as="geometry">
            <mxPoint x="294" y="185" as="sourcePoint" />
            <mxPoint x="294" y="224" as="targetPoint" />
          </mxGeometry>
        </mxCell>
        <mxCell id="wZNhNJfkOugPo1ArBoC4-28" value="" style="endArrow=none;dashed=1;html=1;rounded=0;fontSize=12;startSize=8;endSize=8;curved=1;exitX=1;exitY=0.5;exitDx=0;exitDy=0;" parent="1" source="wZNhNJfkOugPo1ArBoC4-18" edge="1">
          <mxGeometry width="50" height="50" relative="1" as="geometry">
            <mxPoint x="304" y="195" as="sourcePoint" />
            <mxPoint x="284" y="620" as="targetPoint" />
          </mxGeometry>
        </mxCell>
        <mxCell id="wZNhNJfkOugPo1ArBoC4-29" value="" style="endArrow=none;dashed=1;html=1;rounded=0;fontSize=12;startSize=8;endSize=8;curved=1;entryX=0;entryY=0.5;entryDx=0;entryDy=0;exitX=0.5;exitY=1;exitDx=0;exitDy=0;" parent="1" source="wZNhNJfkOugPo1ArBoC4-5" target="wZNhNJfkOugPo1ArBoC4-19" edge="1">
          <mxGeometry width="50" height="50" relative="1" as="geometry">
            <mxPoint x="314" y="205" as="sourcePoint" />
            <mxPoint x="314" y="244" as="targetPoint" />
          </mxGeometry>
        </mxCell>
        <mxCell id="wZNhNJfkOugPo1ArBoC4-30" value="" style="endArrow=none;dashed=1;html=1;rounded=0;fontSize=12;startSize=8;endSize=8;curved=1;entryX=0;entryY=0.5;entryDx=0;entryDy=0;exitX=1;exitY=0.5;exitDx=0;exitDy=0;" parent="1" source="wZNhNJfkOugPo1ArBoC4-19" target="wZNhNJfkOugPo1ArBoC4-20" edge="1">
          <mxGeometry width="50" height="50" relative="1" as="geometry">
            <mxPoint x="488" y="185" as="sourcePoint" />
            <mxPoint x="488" y="281" as="targetPoint" />
          </mxGeometry>
        </mxCell>
        <mxCell id="wZNhNJfkOugPo1ArBoC4-31" value="" style="endArrow=none;dashed=1;html=1;rounded=0;fontSize=12;startSize=8;endSize=8;curved=1;exitX=1;exitY=0.5;exitDx=0;exitDy=0;" parent="1" source="wZNhNJfkOugPo1ArBoC4-20" edge="1">
          <mxGeometry width="50" height="50" relative="1" as="geometry">
            <mxPoint x="498" y="195" as="sourcePoint" />
            <mxPoint x="478" y="622" as="targetPoint" />
          </mxGeometry>
        </mxCell>
        <mxCell id="wZNhNJfkOugPo1ArBoC4-36" value="1.輸入用戶名密碼" style="html=1;verticalAlign=bottom;endArrow=block;curved=0;rounded=0;fontSize=12;startSize=8;endSize=8;" parent="1" edge="1">
          <mxGeometry x="-0.0191" y="-8" width="80" relative="1" as="geometry">
            <mxPoint x="113" y="215" as="sourcePoint" />
            <mxPoint x="270" y="215" as="targetPoint" />
            <mxPoint as="offset" />
          </mxGeometry>
        </mxCell>
        <mxCell id="wZNhNJfkOugPo1ArBoC4-37" value="2.選擇商品操作" style="html=1;verticalAlign=bottom;endArrow=block;curved=0;rounded=0;fontSize=12;startSize=8;endSize=8;exitX=1;exitY=0;exitDx=0;exitDy=0;entryX=0;entryY=1;entryDx=0;entryDy=0;" parent="1" source="wZNhNJfkOugPo1ArBoC4-17" target="wZNhNJfkOugPo1ArBoC4-19" edge="1">
          <mxGeometry x="0.0105" y="-11" width="80" relative="1" as="geometry">
            <mxPoint x="384" y="273" as="sourcePoint" />
            <mxPoint x="456" y="276" as="targetPoint" />
            <mxPoint as="offset" />
          </mxGeometry>
        </mxCell>
        <mxCell id="wZNhNJfkOugPo1ArBoC4-38" value="3.商品操作" style="html=1;verticalAlign=bottom;endArrow=block;curved=0;rounded=0;fontSize=12;startSize=8;endSize=8;entryX=0;entryY=1;entryDx=0;entryDy=0;exitX=1;exitY=0;exitDx=0;exitDy=0;" parent="1" source="wZNhNJfkOugPo1ArBoC4-19" target="wZNhNJfkOugPo1ArBoC4-23" edge="1">
          <mxGeometry x="-0.0037" y="-11" width="80" relative="1" as="geometry">
            <mxPoint x="422" y="337" as="sourcePoint" />
            <mxPoint x="488" y="335" as="targetPoint" />
            <mxPoint as="offset" />
          </mxGeometry>
        </mxCell>
        <mxCell id="wZNhNJfkOugPo1ArBoC4-39" value="5.返回操作" style="html=1;verticalAlign=bottom;endArrow=open;dashed=1;endSize=8;curved=0;rounded=0;fontSize=12;exitX=1;exitY=1;exitDx=0;exitDy=0;entryX=0;entryY=0;entryDx=0;entryDy=0;" parent="1" source="wZNhNJfkOugPo1ArBoC4-23" target="wZNhNJfkOugPo1ArBoC4-20" edge="1">
          <mxGeometry x="0.0028" y="9" relative="1" as="geometry">
            <mxPoint x="488" y="335" as="sourcePoint" />
            <mxPoint x="408" y="335" as="targetPoint" />
            <mxPoint as="offset" />
          </mxGeometry>
        </mxCell>
        <mxCell id="wZNhNJfkOugPo1ArBoC4-40" value="6.返回操作" style="html=1;verticalAlign=bottom;endArrow=open;dashed=1;endSize=8;curved=0;rounded=0;fontSize=12;exitX=1;exitY=1;exitDx=0;exitDy=0;entryX=0;entryY=0;entryDx=0;entryDy=0;" parent="1" source="wZNhNJfkOugPo1ArBoC4-20" target="wZNhNJfkOugPo1ArBoC4-18" edge="1">
          <mxGeometry x="0.0142" y="11" relative="1" as="geometry">
            <mxPoint x="488" y="335" as="sourcePoint" />
            <mxPoint x="408" y="335" as="targetPoint" />
            <mxPoint as="offset" />
          </mxGeometry>
        </mxCell>
        <mxCell id="wZNhNJfkOugPo1ArBoC4-41" value="7.返回操作" style="html=1;verticalAlign=bottom;endArrow=open;dashed=1;endSize=8;curved=0;rounded=0;fontSize=12;entryX=0;entryY=0;entryDx=0;entryDy=0;exitX=1;exitY=1;exitDx=0;exitDy=0;" parent="1" source="wZNhNJfkOugPo1ArBoC4-18" target="wZNhNJfkOugPo1ArBoC4-13" edge="1">
          <mxGeometry relative="1" as="geometry">
            <mxPoint x="488" y="335" as="sourcePoint" />
            <mxPoint x="408" y="335" as="targetPoint" />
          </mxGeometry>
        </mxCell>
      </root>
    </mxGraphModel>
  </diagram>
</mxfile>
